<svg xmlns="http://www.w3.org/2000/svg" xmlns:xlink="http://www.w3.org/1999/xlink" width="50" zoomAndPan="magnify" viewBox="0 0 37.5 37.499999" height="50" preserveAspectRatio="xMidYMid meet" version="1.0"><defs><clipPath id="id1"><path d="M 0 3.234375 L 37.007812 3.234375 L 37.007812 33.984375 L 0 33.984375 Z M 0 3.234375 " clip-rule="nonzero"/></clipPath></defs><g clip-path="url(#id1)"><path fill="#28ce40" d="M 36.359375 8.667969 C 35.613281 8.242188 34.828125 8.339844 33.984375 8.496094 C 34.738281 7.808594 35.144531 6.746094 35.039062 5.726562 C 34.933594 4.707031 34.320312 3.753906 33.441406 3.238281 C 34.011719 3.882812 34.101562 4.859375 33.84375 5.683594 C 33.585938 6.507812 33.027344 7.203125 32.40625 7.800781 C 32.324219 7.878906 32.238281 7.960938 32.128906 7.992188 C 31.820312 8.078125 31.574219 7.742188 31.304688 7.5625 C 30.746094 7.179688 29.996094 7.476562 29.390625 7.777344 C 28.785156 8.078125 28.175781 8.378906 27.570312 8.679688 C 27.144531 8.890625 26.640625 9.105469 26.21875 8.886719 C 25.757812 8.644531 25.664062 8.027344 25.6875 7.503906 C 25.734375 6.417969 26.046875 5.347656 26.582031 4.402344 C 25.71875 5.226562 25.050781 6.253906 24.640625 7.378906 C 24.285156 8.363281 24.207031 9.640625 25.027344 10.285156 C 23.140625 10.253906 21.320312 10.945312 20.09375 12.390625 C 19.832031 12.699219 19.59375 13.039062 19.25 13.257812 C 18.980469 13.433594 18.664062 13.515625 18.355469 13.621094 C 17.550781 13.898438 16.800781 14.335938 16.160156 14.90625 C 15.996094 15.050781 15.835938 15.207031 15.640625 15.304688 C 15.339844 15.453125 14.988281 15.445312 14.652344 15.46875 C 14 15.515625 13.507812 15.5 12.976562 15.882812 C 12.535156 16.203125 11.914062 16.144531 11.410156 15.933594 C 10.90625 15.722656 10.46875 15.378906 9.96875 15.152344 C 9.136719 14.777344 8.089844 14.765625 7.375 15.335938 C 6.746094 15.835938 6.570312 16.644531 6.09375 17.269531 C 5.734375 17.738281 5.25 18.132812 4.679688 18.269531 C 3.839844 18.476562 3.007812 18.078125 2.171875 18.195312 C 1.9375 18.230469 0.140625 18.914062 0.0625 18.492188 C 0.132812 18.871094 0.472656 19.316406 0.898438 19.332031 C 1.167969 19.34375 1.40625 19.183594 1.664062 19.113281 C 2.457031 18.90625 3.441406 19.28125 4.296875 19.175781 C 5.210938 19.066406 6.160156 18.898438 6.835938 18.210938 C 7.519531 17.519531 7.542969 16.339844 8.566406 16.035156 C 9.121094 15.867188 9.8125 16.125 10.011719 16.675781 C 10.152344 17.058594 10.039062 17.5 9.828125 17.847656 C 9.613281 18.195312 9.3125 18.480469 9.039062 18.78125 C 7.933594 20.007812 7.261719 21.625 7.167969 23.277344 C 7.097656 24.539062 7.34375 25.855469 6.902344 27.039062 C 6.800781 27.3125 6.667969 27.570312 6.59375 27.851562 C 6.53125 28.085938 6.515625 28.328125 6.5 28.570312 C 6.4375 29.503906 6.375 30.441406 6.308594 31.375 C 6.285156 31.769531 6.300781 32.25 6.644531 32.445312 C 6.785156 32.527344 6.953125 32.535156 7.117188 32.542969 C 7.4375 32.558594 7.757812 32.574219 8.074219 32.585938 C 7.457031 31.378906 7.40625 29.835938 7.902344 28.574219 C 9.101562 28.699219 9.910156 27.898438 10.828125 27.109375 C 11.171875 26.816406 11.539062 26.433594 11.960938 26.199219 C 13.539062 24.535156 14.429688 22.1875 14.261719 19.835938 C 15.070312 22.054688 14.132812 24.171875 12.847656 26.007812 C 12.921875 26.015625 12.996094 26.03125 13.074219 26.054688 C 13.125 26.074219 13.175781 26.089844 13.226562 26.105469 C 14.960938 26.140625 16.816406 26.042969 18.324219 26.777344 C 18.738281 26.847656 19.152344 26.921875 19.566406 26.996094 C 19.0625 25.472656 18.976562 23.808594 19.304688 22.273438 C 19.386719 23.867188 19.285156 25.703125 19.90625 27.234375 C 20.339844 28.070312 21.035156 28.765625 21.871094 29.1875 C 22.15625 29.328125 22.449219 29.597656 22.765625 29.585938 C 22.746094 30.0625 23.261719 30.355469 23.703125 30.53125 C 24.140625 30.710938 24.660156 31 24.644531 31.480469 C 24.636719 31.617188 24.585938 31.746094 24.550781 31.878906 C 24.320312 32.710938 24.804688 33.679688 25.605469 33.988281 C 26.066406 33.472656 26.378906 32.820312 26.496094 32.136719 C 26.570312 31.679688 26.554688 31.1875 26.324219 30.785156 C 26.074219 30.347656 25.613281 30.082031 25.207031 29.792969 C 25.105469 29.71875 25.007812 29.644531 24.941406 29.542969 C 24.867188 29.421875 24.839844 29.28125 24.816406 29.144531 C 24.769531 28.863281 24.71875 28.582031 24.671875 28.304688 C 24.660156 28.238281 24.648438 28.167969 24.671875 28.101562 C 23.992188 26.40625 24.78125 24.339844 24.140625 22.589844 C 24.035156 22.273438 23.617188 21.953125 23.195312 21.742188 C 25.785156 22.578125 24.292969 25.882812 24.953125 27.902344 C 24.960938 27.898438 24.96875 27.898438 24.980469 27.894531 C 25.855469 27.628906 26.605469 27.121094 27.21875 26.4375 C 27.589844 26.90625 28.148438 27.21875 28.738281 27.285156 C 29.222656 27.339844 29.769531 27.25 30.164062 27.542969 C 30.582031 27.855469 30.636719 28.460938 30.5625 28.980469 C 30.523438 29.238281 30.460938 29.5 30.320312 29.722656 C 30.152344 29.992188 29.886719 30.183594 29.707031 30.441406 C 29.527344 30.703125 29.464844 31.101562 29.699219 31.3125 C 29.78125 31.382812 29.902344 31.445312 29.90625 31.554688 C 29.90625 31.621094 29.859375 31.679688 29.824219 31.738281 C 29.621094 32.070312 29.769531 32.53125 30.054688 32.800781 C 30.339844 33.066406 30.726562 33.183594 31.101562 33.296875 C 31.476562 33.039062 31.183594 32.394531 31.433594 32.011719 C 31.53125 31.859375 31.699219 31.773438 31.816406 31.640625 C 31.996094 31.441406 32.050781 31.164062 32.082031 30.898438 C 32.230469 29.65625 32.066406 28.398438 31.90625 27.15625 C 31.855469 26.761719 31.796875 26.34375 31.5625 26.023438 C 31.3125 25.6875 30.773438 25.644531 30.765625 25.226562 C 31.019531 25.03125 31.007812 24.636719 30.902344 24.332031 C 30.796875 24.03125 30.621094 23.738281 30.625 23.414062 C 30.628906 23.054688 30.855469 22.742188 31.050781 22.4375 C 31.648438 21.5 31.996094 20.398438 32.046875 19.285156 C 32.0625 18.886719 32.046875 18.46875 32.230469 18.113281 C 32.230469 17.703125 32.984375 17.496094 33.210938 17.273438 C 33.675781 16.816406 33.980469 16.105469 34.320312 15.550781 C 35.105469 14.277344 35.886719 13 36.671875 11.722656 C 36.886719 11.375 37.105469 11.015625 37.214844 10.621094 C 37.4375 9.832031 37.050781 9.066406 36.359375 8.667969 " fill-opacity="1" fill-rule="nonzero"/></g><path fill="#28ce40" d="M 19.953125 31.28125 C 19.820312 31.160156 19.675781 31.039062 19.609375 30.871094 C 19.554688 30.734375 19.558594 30.585938 19.527344 30.441406 C 19.429688 30.015625 19.023438 29.738281 18.8125 29.355469 C 18.671875 29.105469 18.621094 28.820312 18.574219 28.539062 C 18.488281 28.054688 18.398438 27.578125 18.3125 27.089844 C 18.316406 27.09375 18.320312 27.09375 18.324219 27.09375 C 16.816406 26.363281 14.960938 26.457031 13.226562 26.421875 C 13.585938 26.535156 13.945312 26.652344 14.304688 26.765625 C 15.375 27.101562 16.882812 27.605469 17.089844 28.90625 C 17.105469 29.011719 17.113281 29.125 17.167969 29.21875 C 17.253906 29.363281 17.433594 29.414062 17.570312 29.511719 C 18.023438 29.839844 17.945312 30.601562 18.378906 30.953125 C 18.523438 31.074219 18.71875 31.136719 18.8125 31.300781 C 18.90625 31.460938 18.867188 31.664062 18.902344 31.847656 C 18.976562 32.207031 19.351562 32.441406 19.714844 32.476562 C 20.082031 32.511719 20.441406 32.386719 20.785156 32.265625 C 20.550781 31.90625 20.269531 31.574219 19.953125 31.28125 " fill-opacity="1" fill-rule="nonzero"/></svg>