<svg xmlns="http://www.w3.org/2000/svg" width="752pt" height="752pt" version="1.1" viewBox="0 0 752 752">
    <path
        d="m531.07 163.45h-215.5c-38.441 0-69.887 31.441-69.887 69.883v289.09c0 2.75-2.25 5-5 5s-5-2.25-5-5l0.003906-170.71h-14.746c-38.594 0-69.887 31.344-69.887 69.883v97.078c0 38.59 31.293 69.883 69.887 69.883h310.13c38.438 0.003907 69.883-31.438 69.883-69.879v-285.34c0-38.441-31.445-69.883-69.887-69.883zm-133.57 280.39h-76.082c-6.8984 0-12.496-5.5977-12.496-12.496 0-6.8984 5.5977-12.496 12.496-12.496h76.082c6.8984 0 12.496 5.5977 12.496 12.496 0 6.8984-5.5977 12.496-12.496 12.496zm127.72 0h-51.688c-6.8984 0-12.496-5.5977-12.496-12.496 0-6.8984 5.5977-12.496 12.496-12.496h51.688c6.9492 0 12.496 5.5977 12.496 12.496 0 6.8984-5.5469 12.496-12.496 12.496zm0-78.633h-203.8c-6.8984 0-12.496-5.5977-12.496-12.496 0-6.8984 5.5977-12.496 12.496-12.496h203.8c6.9492 0 12.496 5.5977 12.496 12.496 0 6.8984-5.5469 12.496-12.496 12.496zm0-78.633h-203.8c-6.8984 0-12.496-5.5977-12.496-12.496 0-6.8984 5.5977-12.496 12.496-12.496h203.8c6.9492 0 12.496 5.5977 12.496 12.496 0 6.8984-5.5469 12.496-12.496 12.496z" />
</svg>